<svg width="512" height="512" viewBox="0 0 512 512" xmlns="http://www.w3.org/2000/svg">
  <defs>
    <linearGradient id="bg" x1="0" y1="0" x2="512" y2="512" gradientUnits="userSpaceOnUse">
      <stop offset="0" stop-color="#16223a"/>
      <stop offset="1" stop-color="#0b1220"/>
    </linearGradient>
  </defs>
  <rect width="512" height="512" fill="url(#bg)"/>
  <g transform="translate(76,76) scale(0.7)">
    <path d="M186 130 h96 c56 0 92 34 92 84 s-36 84 -92 84 h-46 v84 h-50 z M236 176 v76 h44 c28 0 46 -16 46 -38 s-18 -38 -46 -38 z"
          fill="#eef2f8"/>
    <path d="M338 158 a 130 130 0 0 1 0 196" stroke="#2fbf9f" stroke-width="14" fill="none" stroke-linecap="round"/>
    <path d="M362 182 a 96 96 0 0 1 0 148" stroke="#2fbf9f" stroke-width="14" fill="none" stroke-linecap="round" opacity="0.75"/>
    <rect x="120" y="356" width="26" height="26" rx="4" fill="#2f8fdb"/>
    <rect x="156" y="356" width="10" height="26" rx="2" fill="#2f8fdb" opacity="0.6"/>
    <rect x="120" y="392" width="10" height="10" rx="2" fill="#2f8fdb" opacity="0.6"/>
  </g>
</svg>
